<svg width="946" height="388" viewBox="0 0 946 388" fill="none" xmlns="http://www.w3.org/2000/svg">
<g clip-path="url(#clip0_3019_10328)">
<path d="M945.75 255.23C937.35 254.46 927.24 256.23 919.08 255.28C918.25 255.18 917.44 255.28 916.86 254.49L881.62 181.75L846 255.23H817.5C818.87 250.48 821.41 245.33 823.6 240.71C837.96 210.43 852.42 180.09 867.1 149.96C867.7 148.73 869.81 143.96 870.36 143.47C872.44 141.61 888.51 143.24 892.36 142.86L945.73 253.73L945.75 255.23Z" fill="#333843"/>
<path d="M753 386.48V387.23H725.25V386.48C734.2 386.76 744.04 386.78 753 386.48Z" fill="#C3E6E3"/>
<path d="M627.751 142.73H656.251L602.881 255.08L581.751 255.24L525.871 148.98C482.471 73.6401 397.591 36.2301 314.501 23.6101C216.281 8.69006 98.6812 28.33 20.6412 92.5C17.3512 95.21 13.5512 99.67 10.5312 101.89C9.53125 102.64 8.96125 103.29 7.53125 102.98C26.7913 78.8 51.9012 58.49 79.0212 43.6C219.131 -33.29 453.451 -11.2 544.841 131.6C562.281 158.84 574.911 189.87 591.401 217.77L627.751 142.73Z" fill="#343843"/>
<path d="M752.999 386.48C743.999 386.78 734.199 386.76 725.249 386.48C652.699 384.2 589.439 349.55 545.249 293.08C518.649 259.08 501.149 218.08 480.709 180.24L443.969 255.24H415.469L468.829 142.87C469.669 142.34 486.829 142.41 488.589 142.74C488.972 142.754 489.343 142.875 489.661 143.089C489.979 143.303 490.231 143.601 490.389 143.95C522.389 200.67 544.959 266.2 594.699 310.38C653.089 362.24 731.099 375.16 806.229 357.63C855.169 346.21 901.229 321.97 940.099 290.51C936.679 297.05 931.559 303.01 926.599 308.51C884.119 355.53 816.189 384.42 752.999 386.48Z" fill="#4FC0BA"/>
<path d="M0 142.73C17.38 143.49 35.6 141.73 52.9 142.73C67.95 143.58 87.8 148.35 91.9 165.23C94.59 176.31 91.13 186.23 82.84 193.74C81.91 194.59 77.61 196.32 78.74 197.5C101.69 204.29 105.74 236.66 84.67 248.83C79.91 251.58 68.72 255.26 63.36 255.26H0V142.73ZM25.5 189.23H51.37C54.1163 188.637 56.8089 187.817 59.42 186.78C70.6 181.59 68.12 166.78 56.11 163.49C53.7997 162.951 51.4633 162.53 49.11 162.23H25.5V189.23ZM25.5 235.73H58.12C60.2857 235.249 62.4171 234.624 64.5 233.86C75.79 229.07 74.28 213.36 62.66 209.44C60.687 208.848 58.6843 208.361 56.66 207.98H25.5V235.73Z" fill="#4FC0BA"/>
<path d="M195.75 142.74V163.74H140.25V188.49H195.75V209.49H140.25V234.24H195.75V255.24H114V142.74H195.75Z" fill="#4FC0BA"/>
<path d="M824.25 142.74V164.49H788.25V255.24H762V164.49H726V142.74H824.25Z" fill="#343944"/>
<path d="M240 142.74V234.24H296.25V255.24H213.75V142.74H240Z" fill="#4FC0BA"/>
<path d="M340.5 234.24H396.75V255.24H314.25V142.74H339.38L340.5 143.86V234.24Z" fill="#4FC1BA"/>
<path d="M704.25 142.73V255.98H679.87C679.62 255.98 678.73 254.98 678 255.23V142.73H704.25Z" fill="#343944"/>
<path d="M705.477 92C714.177 100.84 711.937 116.79 701.017 122.64C685.127 131.15 667.727 116.31 673.107 99.22C677.307 85.88 695.767 82.15 705.477 92Z" fill="#4FC0BA"/>
</g>
<defs>
<clipPath id="clip0_3019_10328">
<rect width="945.75" height="387.24" fill="white"/>
</clipPath>
</defs>
</svg>
