<svg width="946" height="388" viewBox="0 0 946 388" fill="none" xmlns="http://www.w3.org/2000/svg">
<mask id="mask0_3019_10365" style="mask-type:luminance" maskUnits="userSpaceOnUse" x="0" y="0" width="946" height="388">
<path d="M945.75 0H0V387.24H945.75V0Z" fill="white"/>
</mask>
<g mask="url(#mask0_3019_10365)">
<path d="M753 386.48V387.23H725.25V386.48C734.2 386.76 744.04 386.78 753 386.48Z" fill="#C3E6E3"/>
<path d="M627.751 142.73H656.251L602.881 255.08L581.751 255.24L525.871 148.98C482.471 73.6403 397.591 36.2303 314.501 23.6103C216.281 8.69031 98.6812 28.3302 20.6412 92.5002C17.3512 95.2102 13.5512 99.6702 10.5312 101.89C9.53125 102.64 8.96125 103.29 7.53125 102.98C26.7913 78.8002 51.9012 58.4902 79.0212 43.6002C219.131 -33.2898 453.451 -11.1998 544.841 131.6C562.281 158.84 574.911 189.87 591.401 217.77L627.751 142.73Z" fill="#343843"/>
<path d="M752.999 386.48C743.999 386.78 734.199 386.76 725.249 386.48C652.699 384.2 589.439 349.55 545.249 293.08C518.649 259.08 501.149 218.08 480.709 180.24L443.969 255.24H415.469L468.829 142.87C469.669 142.34 486.829 142.41 488.589 142.74C488.972 142.754 489.343 142.875 489.661 143.089C489.979 143.303 490.231 143.601 490.389 143.95C522.389 200.67 544.959 266.2 594.699 310.38C653.089 362.24 731.099 375.16 806.229 357.63C855.169 346.21 901.229 321.97 940.099 290.51C936.679 297.05 931.559 303.01 926.599 308.51C884.119 355.53 816.189 384.42 752.999 386.48Z" fill="#4FC0BA"/>
</g>
</svg>
