<?xml version="1.0" encoding="UTF-8"?>
<svg version="1.1" xmlns="http://www.w3.org/2000/svg" width="576" height="564">
<path d="M0 0 C76.20134272 14.77372971 149.86966731 43.23559677 211 92 C212.010625 92.79792969 213.02125 93.59585938 214.0625 94.41796875 C219.95608087 99.14790226 225.54698923 104.15815909 231.078125 109.30078125 C233.78878029 111.80487591 236.5427361 114.24926845 239.3125 116.6875 C242.95983529 119.95611836 246.20955154 123.37144344 249.36328125 127.11328125 C250.95615725 128.9494605 252.62512156 130.62669033 254.375 132.3125 C258.98846306 136.87492917 262.98542457 141.91319961 267 147 C267.48243164 147.60602051 267.96486328 148.21204102 268.46191406 148.83642578 C287.98414429 173.4457817 302.88689432 200.55352934 317.17041016 228.43359375 C319.0152293 232.03307216 320.87129403 235.62666917 322.73046875 239.21875 C323.04104218 239.8188237 323.3516156 240.4188974 323.67160034 241.03715515 C324.61426716 242.85817236 325.55712889 244.67908856 326.5 246.5 C327.74896368 248.91262295 328.99764411 251.32539226 330.24609375 253.73828125 C330.55451202 254.33429642 330.8629303 254.93031158 331.18069458 255.54438782 C333.08842457 259.23268031 334.99070585 262.92373148 336.88919067 266.61679077 C337.83777224 268.46124989 338.7877784 270.30496783 339.73828125 272.1484375 C340.91412186 274.42961863 342.08748979 276.71207684 343.2578125 278.99609375 C346.60664746 285.48395714 350.15686126 291.7917199 354 298 C356.01310122 295.43653914 357.61971089 292.97151486 358.99609375 290.01953125 C359.57097534 288.80015869 359.57097534 288.80015869 360.1574707 287.55615234 C360.57988037 286.65074707 361.00229004 285.7453418 361.4375 284.8125 C366.80238943 273.45365017 372.29503331 262.1603108 377.8125 250.875 C384.47326358 237.24425587 391.10995727 223.60261704 397.68676758 209.93115234 C398.20263428 208.85945801 398.71850098 207.78776367 399.25 206.68359375 C399.68828125 205.77150146 400.1265625 204.85940918 400.578125 203.91967773 C402.35744205 200.2660286 404.18257759 196.63484483 406 193 C419.53 193 433.06 193 447 193 C441.79622617 204.77696183 436.38701552 216.42594521 430.75 228 C425.92132708 237.91436997 421.17437538 247.85718959 416.5625 257.875 C411.83133423 268.14587752 406.95592098 278.33624186 402 288.5 C395.31029463 302.22091764 388.8353658 316.02757766 382.43994141 329.88818359 C380.22996759 334.66409514 377.99615735 339.42851404 375.75 344.1875 C375.19324585 345.37351807 375.19324585 345.37351807 374.62524414 346.58349609 C372.11835187 351.88164813 372.11835187 351.88164813 371 353 C368.70848583 353.08790975 366.41427476 353.10694038 364.12109375 353.09765625 C363.09110008 353.09553383 363.09110008 353.09553383 362.04029846 353.09336853 C359.83932199 353.08775479 357.63844591 353.07520007 355.4375 353.0625 C353.94856917 353.05748676 352.45963676 353.05292355 350.97070312 353.04882812 C347.31376925 353.03778093 343.65689442 353.02050713 340 353 C339.6690332 352.35788574 339.33806641 351.71577148 338.99707031 351.05419922 C333.23516722 339.88927275 327.45517556 328.74537747 321.375 317.75 C315.42484547 306.96864491 309.84272672 296.00489759 304.24337769 285.03900146 C299.15694033 275.0824495 293.9946597 265.18919359 288.57080078 255.41113281 C284.2404146 247.55378273 280.15556707 239.57609833 276.0713501 231.58908081 C266.5919481 213.05513548 257.24123653 194.89506712 245 178 C244.51241211 177.32163086 244.02482422 176.64326172 243.52246094 175.94433594 C237.59122736 167.72561683 231.40918981 159.9749912 224.453125 152.6015625 C222.38171835 150.40481596 220.39569738 148.17176421 218.4375 145.875 C202.63508492 127.69088121 182.96056245 112.35460675 163 99 C162.18466797 98.45375977 161.36933594 97.90751953 160.52929688 97.34472656 C112.91929083 65.7069932 59.70355822 45.56397325 4.28955078 32.59741211 C2 32 2 32 0 31 C0 20.77 0 10.54 0 0 Z " fill="#343944" transform="translate(13,13)"/>
<path d="M0 0 C1.14984375 -0.01224609 2.2996875 -0.02449219 3.484375 -0.03710938 C4.59039062 -0.03904297 5.69640625 -0.04097656 6.8359375 -0.04296875 C7.84962402 -0.04707764 8.86331055 -0.05118652 9.90771484 -0.05541992 C12.79705151 0.20288107 14.27952771 0.49365137 16.625 2.1875 C18.25537109 4.58349609 18.25537109 4.58349609 19.8984375 7.7109375 C20.2106424 8.29939957 20.52284729 8.88786163 20.84451294 9.49415588 C21.90875717 11.51067708 22.95455397 13.53617584 24 15.5625 C24.7646109 17.02435987 25.52959867 18.48602268 26.29492188 19.94750977 C35.77313275 38.13765473 44.86573796 56.53209851 53.98974609 74.90185547 C60.38724771 87.77696437 66.83674214 100.61422519 73.61407471 113.29483032 C74.53754336 115.02376234 75.45442221 116.75621001 76.37060547 118.48901367 C91.29232094 146.69618834 107.59758933 174.2660427 127.625 199.1875 C128.35847656 200.11304688 129.09195313 201.03859375 129.84765625 201.9921875 C143.56782593 219.07585556 159.11607251 235.94606876 176.625 249.1875 C177.81037752 250.11266442 178.99523614 251.03849391 180.1796875 251.96484375 C231.67041345 291.82988864 293.13473804 311.58105272 357.625 316.1875 C357.625 326.4175 357.625 336.6475 357.625 347.1875 C266.16821054 347.1875 184.05698507 307.31860874 119.9375 243.6875 C113.38109858 237.12538301 107.30882817 230.5188146 101.625 223.1875 C100.61849862 221.96551458 99.6077337 220.74703389 98.59375 219.53125 C91.0262884 210.43485 84.10744835 201.08379479 77.625 191.1875 C76.81893311 189.96184326 76.81893311 189.96184326 75.99658203 188.71142578 C66.93137748 174.86662123 58.56779467 160.70237945 50.625 146.1875 C50.03605957 145.11258301 49.44711914 144.03766602 48.84033203 142.93017578 C40.8897196 128.36708909 33.28823026 113.66162554 25.91430664 98.80029297 C20.97284527 88.84404683 15.86641706 78.98856097 10.625 69.1875 C9.82914051 67.69286089 9.033568 66.19806894 8.23828125 64.703125 C6.37193397 61.19537462 4.49894102 57.69119916 2.625 54.1875 C1.93821167 55.56216431 1.93821167 55.56216431 1.23754883 56.96459961 C-2.19792238 63.83908567 -5.63688472 70.71178863 -9.08424377 77.58032227 C-21.56817424 102.39873217 -21.56817424 102.39873217 -33.66479492 127.40698242 C-37.02581732 134.5011137 -40.49434374 141.53877259 -44 148.5625 C-44.52215088 149.61131348 -45.04430176 150.66012695 -45.58227539 151.74072266 C-46.06301514 152.70026855 -46.54375488 153.65981445 -47.0390625 154.6484375 C-47.46654785 155.50228027 -47.8940332 156.35612305 -48.33447266 157.23583984 C-49.375 159.1875 -49.375 159.1875 -50.375 160.1875 C-53.2593382 160.27615208 -56.11962158 160.30271296 -59.00390625 160.28515625 C-60.30025246 160.28303383 -60.30025246 160.28303383 -61.62278748 160.28086853 C-64.39439292 160.27525239 -67.1659188 160.26269719 -69.9375 160.25 C-71.8118478 160.24498708 -73.68619685 160.24042381 -75.56054688 160.23632812 C-80.16539544 160.22527772 -84.77018421 160.2080023 -89.375 160.1875 C-88.06664011 156.01886947 -86.49816371 152.16297555 -84.57421875 148.2421875 C-84.01621582 147.09782227 -83.45821289 145.95345703 -82.88330078 144.77441406 C-82.58715881 144.17085083 -82.29101685 143.5672876 -81.98590088 142.94543457 C-80.38911045 139.68937107 -78.80534417 136.42699927 -77.22265625 133.1640625 C-76.73578339 132.16058777 -76.73578339 132.16058777 -76.23907471 131.13684082 C-73.07930284 124.6072379 -70.03246429 118.02708624 -67 111.4375 C-61.91973945 100.41424891 -56.66533227 89.48595694 -51.34579468 78.57684326 C-46.19347352 68.00511276 -41.18273329 57.37944687 -36.26245117 46.69726562 C-32.00391735 37.4782929 -27.61841639 28.32465599 -23.1875 19.1875 C-22.85885956 18.50975525 -22.53021912 17.8320105 -22.19161987 17.13372803 C-20.25818329 13.14899432 -18.32218428 9.16553797 -16.375 5.1875 C-16.02397217 4.42050781 -15.67294434 3.65351563 -15.3112793 2.86328125 C-12.69762284 -1.81472081 -4.60956886 0.00256658 0 0 Z " fill="#4FC0BA" transform="translate(207.375,205.8125)"/>
</svg>
