<svg width="126" height="38" viewBox="0 0 126 38" fill="none" xmlns="http://www.w3.org/2000/svg">
<path d="M43.1348 12.1914C44.8623 12.1915 46.2026 12.6076 47.1553 13.4395C48.108 14.2591 48.7303 15.4094 49.0225 16.8896L46.4307 17.0176C46.2655 16.1614 45.9104 15.4883 45.3643 14.999C44.8181 14.5097 44.0746 14.2657 43.1348 14.2656C42.3725 14.2656 41.7113 14.461 41.1523 14.8525C40.5935 15.244 40.1613 15.7944 39.8564 16.5039C39.5516 17.2135 39.3994 18.0521 39.3994 19.0186C39.3994 19.9971 39.5516 20.8413 39.8564 21.5508C40.174 22.2481 40.6129 22.7868 41.1719 23.166C41.7308 23.5451 42.3786 23.7344 43.1152 23.7344C44.1188 23.7344 44.8942 23.4714 45.4404 22.9453C45.9992 22.407 46.3544 21.6728 46.5068 20.7432L49.0986 20.8721C48.9208 21.8874 48.5774 22.7684 48.0693 23.5146C47.5612 24.2485 46.8881 24.8171 46.0498 25.2207C45.2241 25.6122 44.2459 25.8086 43.1152 25.8086C41.883 25.8086 40.7965 25.5393 39.8564 25.001C38.9164 24.4504 38.18 23.6731 37.6465 22.6699C37.113 21.6546 36.8457 20.4376 36.8457 19.0186C36.8457 17.624 37.1062 16.4187 37.627 15.4033C38.1477 14.3758 38.8784 13.5867 39.8184 13.0361C40.7584 12.4734 41.8644 12.1914 43.1348 12.1914ZM54.583 15.4951C56.0312 15.4951 57.1235 15.85 57.8604 16.5596C58.6097 17.2568 58.9843 18.2596 58.9844 19.5684V23.1289C58.9844 23.3858 59.0293 23.5632 59.1182 23.6611C59.2198 23.759 59.3661 23.8076 59.5566 23.8076H59.8809V25.5146C59.8046 25.5391 59.6769 25.5571 59.499 25.5693C59.334 25.5816 59.1621 25.5879 58.9844 25.5879C58.5653 25.5878 58.1905 25.5266 57.8604 25.4043C57.5302 25.2697 57.2764 25.0435 57.0986 24.7256C56.9911 24.5259 56.9165 24.2836 56.874 23.999C56.7541 24.2454 56.5875 24.4752 56.374 24.6885C56.0437 25.0188 55.6244 25.2764 55.1162 25.46C54.6082 25.6434 54.0364 25.7344 53.4014 25.7344C52.3343 25.7344 51.477 25.502 50.8291 25.0371C50.1813 24.56 49.8574 23.8997 49.8574 23.0557C49.8574 22.2115 50.1305 21.5504 50.6768 21.0732C51.223 20.5963 52.0551 20.2538 53.1729 20.0459L56.5459 19.4033C56.5458 18.7062 56.38 18.1862 56.0498 17.8438C55.7195 17.4891 55.2307 17.3115 54.583 17.3115C53.9986 17.3115 53.5344 17.4467 53.1914 17.7158C52.8614 17.9727 52.6328 18.3459 52.5059 18.835L50.0283 18.7246C50.2316 17.6848 50.7271 16.8894 51.5146 16.3389C52.3023 15.7761 53.3253 15.4951 54.583 15.4951ZM71.7002 15.4951C72.6657 15.4951 73.5103 15.7032 74.2344 16.1191C74.9711 16.5351 75.5368 17.1341 75.9307 17.917C76.3245 18.6999 76.5215 19.6422 76.5215 20.7432V21.2754H69.2988C69.3496 22.1318 69.5915 22.7803 70.0234 23.2207C70.4681 23.6488 71.0523 23.8633 71.7764 23.8633C72.3224 23.8633 72.7733 23.7469 73.1289 23.5146C73.4973 23.27 73.7519 22.9331 73.8916 22.5049L76.3877 22.6514C76.1082 23.6055 75.5561 24.3587 74.7305 24.9092C73.9174 25.4597 72.9256 25.7344 71.7568 25.7344C70.7407 25.7343 69.8578 25.5272 69.1084 25.1113C68.3589 24.6831 67.7805 24.0833 67.374 23.3125C66.9676 22.5419 66.7647 21.6427 66.7646 20.6152C66.7646 19.5876 66.9676 18.694 67.374 17.9355C67.7805 17.1648 68.353 16.5649 69.0898 16.1367C69.8393 15.7087 70.7095 15.4951 71.7002 15.4951ZM101.433 21.4404C101.433 22.2601 101.572 22.8663 101.852 23.2578C102.144 23.6368 102.582 23.8261 103.166 23.8262C103.827 23.8262 104.335 23.6181 104.69 23.2021C105.059 22.774 105.243 22.1561 105.243 21.3486V15.7148H107.683V25.5146H105.453L105.418 23.9062C105.226 24.3593 104.959 24.7315 104.614 25.0195C104.043 25.4964 103.287 25.7344 102.347 25.7344C101.318 25.7343 100.498 25.4109 99.8887 24.7627C99.2917 24.1021 98.9932 23.1904 98.9932 22.0283V15.7148H101.433V21.4404ZM113.569 15.4951C114.484 15.4951 115.253 15.6419 115.875 15.9355C116.497 16.2169 116.98 16.6079 117.323 17.1094C117.679 17.5987 117.901 18.1618 117.99 18.7979L115.532 18.9082C115.469 18.5779 115.354 18.2906 115.188 18.0459C115.023 17.8014 114.802 17.6174 114.522 17.4951C114.243 17.3606 113.912 17.293 113.531 17.293C112.96 17.293 112.528 17.4038 112.235 17.624C111.943 17.8442 111.797 18.1379 111.797 18.5049C111.797 18.7615 111.86 18.9754 111.987 19.1465C112.127 19.3177 112.35 19.4583 112.654 19.5684C112.959 19.6662 113.366 19.7581 113.874 19.8438C114.941 20.0028 115.78 20.2109 116.39 20.4678C117.012 20.7124 117.45 21.0306 117.704 21.4219C117.971 21.8011 118.104 22.2605 118.104 22.7988C118.104 23.4227 117.92 23.9551 117.552 24.3955C117.196 24.8358 116.688 25.1719 116.027 25.4043C115.38 25.6245 114.618 25.7343 113.741 25.7344C112.738 25.7344 111.892 25.5939 111.206 25.3125C110.533 25.0312 110.012 24.6401 109.644 24.1387C109.275 23.6371 109.065 23.0678 109.015 22.4316L111.511 22.3213C111.6 22.8351 111.822 23.2333 112.178 23.5146C112.533 23.796 113.061 23.9365 113.76 23.9365C114.331 23.9365 114.776 23.851 115.094 23.6797C115.424 23.4962 115.589 23.2142 115.589 22.835C115.589 22.6151 115.532 22.4318 115.418 22.2852C115.304 22.1383 115.087 22.0095 114.77 21.8994C114.452 21.7893 113.982 21.6794 113.359 21.5693C112.318 21.3981 111.498 21.19 110.901 20.9453C110.304 20.6885 109.879 20.3703 109.625 19.9912C109.384 19.612 109.263 19.1408 109.263 18.5781C109.263 17.6606 109.625 16.9202 110.349 16.3574C111.085 15.7824 112.159 15.4951 113.569 15.4951ZM63.2451 17.6006C63.4075 17.0602 63.6325 16.6455 63.9229 16.3574C64.3548 15.9293 64.939 15.7148 65.6758 15.7148H66.6094V17.7334H65.6572C65.1365 17.7334 64.7043 17.8074 64.3613 17.9541C64.0184 18.1009 63.7579 18.3333 63.5801 18.6514C63.4149 18.9572 63.332 19.3608 63.332 19.8623V25.5146H60.8926V15.7148H63.1797L63.2451 17.6006ZM87.4053 12.4854C88.9931 12.4854 90.2319 12.8519 91.1211 13.5859C92.0104 14.32 92.4551 15.336 92.4551 16.6328C92.4551 17.5013 92.2512 18.2535 91.8447 18.8896C91.4382 19.5136 90.8599 19.991 90.1104 20.3213C89.361 20.6515 88.4593 20.8164 87.4053 20.8164H84.6416V25.5146H82.165V12.4854H87.4053ZM96.4961 22.9639C96.4961 23.2085 96.5595 23.3923 96.6865 23.5146C96.8262 23.6368 97.0167 23.6982 97.2578 23.6982H98.001V25.5146H96.4961C95.7593 25.5146 95.1683 25.3309 94.7236 24.9639C94.279 24.5968 94.0566 24.0096 94.0566 23.2021V12.4854H96.4961V22.9639ZM53.916 21.5137C53.3698 21.6238 52.9757 21.7896 52.7344 22.0098C52.5059 22.2176 52.3917 22.4927 52.3916 22.835C52.3916 23.2141 52.5186 23.5079 52.7725 23.7158C53.0392 23.9237 53.414 24.0283 53.8965 24.0283C54.4427 24.0283 54.9129 23.9237 55.3066 23.7158C55.7005 23.5078 56.0057 23.2205 56.2217 22.8535C56.4376 22.4865 56.5459 22.0523 56.5459 21.5508V21L53.916 21.5137ZM71.7002 17.3486C71.0523 17.3486 70.512 17.5504 70.0801 17.9541C69.661 18.3578 69.4004 18.9389 69.2988 19.6973H74.0059C73.955 18.9021 73.72 18.3148 73.3008 17.9355C72.8816 17.5441 72.348 17.3486 71.7002 17.3486ZM84.6416 18.7432H87.291C88.1291 18.7431 88.7703 18.5655 89.2148 18.2109C89.6721 17.8562 89.9013 17.3301 89.9014 16.6328C89.9014 15.9477 89.6722 15.4334 89.2148 15.0908C88.7703 14.7363 88.129 14.5587 87.291 14.5586H84.6416V18.7432Z" fill="#213255"/>
<path d="M27.1406 25.9668H22.3711V21.375H27.1406V25.9668ZM22.3711 21.375H17.6006V16.7832H22.3711V21.375ZM31.9111 21.375H27.1406V16.7832H31.9111V21.375ZM27.1406 16.7832H22.3711V12.1914H27.1406V16.7832Z" fill="#FFBC64"/>
<path d="M22.2061 12.1914H19.0811V12.2217C15.4833 12.5413 12.666 15.4535 12.666 19C12.666 22.5464 15.4834 25.4577 19.0811 25.7773V25.8086H22.2061V30.4004H19.0811V30.3818C12.8463 30.053 7.89551 25.0834 7.89551 19C7.89551 12.9166 12.8463 7.94696 19.0811 7.61816V7.59961H22.2061V12.1914Z" fill="#FD7557"/>
</svg>
