<svg width="148" height="21" viewBox="0 0 148 21" fill="none" xmlns="http://www.w3.org/2000/svg">
<path d="M1.288 15V5.06H4.858C5.96867 5.06 6.832 5.326 7.448 5.858C8.064 6.39 8.372 7.12733 8.372 8.07C8.372 8.70467 8.232 9.25533 7.952 9.722C7.672 10.1793 7.27067 10.5293 6.748 10.772C6.22533 11.0147 5.59533 11.136 4.858 11.136H2.492V15H1.288ZM2.492 9.96H4.858C5.60467 9.96 6.16467 9.80133 6.538 9.484C6.92067 9.16667 7.112 8.69533 7.112 8.07C7.112 7.46333 6.92067 7.006 6.538 6.698C6.16467 6.39 5.60467 6.236 4.858 6.236H2.492V9.96ZM12.797 15.168C12.1157 15.168 11.5183 15.0093 11.005 14.692C10.4917 14.3747 10.095 13.9267 9.81498 13.348C9.53498 12.76 9.39498 12.074 9.39498 11.29C9.39498 10.4967 9.53498 9.81067 9.81498 9.232C10.095 8.65333 10.4917 8.20533 11.005 7.888C11.5183 7.57067 12.1157 7.412 12.797 7.412C13.4783 7.412 14.071 7.57067 14.575 7.888C15.0883 8.20533 15.485 8.65333 15.765 9.232C16.045 9.81067 16.185 10.4967 16.185 11.29C16.185 12.074 16.045 12.76 15.765 13.348C15.485 13.9267 15.0883 14.3747 14.575 14.692C14.071 15.0093 13.4783 15.168 12.797 15.168ZM12.797 14.048C13.4783 14.048 14.0057 13.8053 14.379 13.32C14.7617 12.8253 14.953 12.1487 14.953 11.29C14.953 10.4313 14.7617 9.75933 14.379 9.274C14.0057 8.77933 13.4783 8.532 12.797 8.532C12.1157 8.532 11.5837 8.77933 11.201 9.274C10.8183 9.75933 10.627 10.4313 10.627 11.29C10.627 12.1487 10.8183 12.8253 11.201 13.32C11.5837 13.8053 12.1157 14.048 12.797 14.048ZM19.1229 15L16.8269 7.58H18.1149L19.8509 13.768L21.6149 7.58H22.8749L24.6389 13.768L26.3889 7.58H27.6769L25.3809 15H23.8969L22.2449 9.358L20.5929 15H19.1229ZM31.7085 15.168C31.0085 15.168 30.4018 15.0093 29.8885 14.692C29.3845 14.3747 28.9925 13.9267 28.7125 13.348C28.4418 12.76 28.3065 12.074 28.3065 11.29C28.3065 10.506 28.4418 9.82467 28.7125 9.246C28.9925 8.66733 29.3798 8.21933 29.8745 7.902C30.3785 7.57533 30.9711 7.412 31.6525 7.412C32.2965 7.412 32.8658 7.566 33.3605 7.874C33.8551 8.17267 34.2378 8.61133 34.5085 9.19C34.7885 9.76867 34.9285 10.4733 34.9285 11.304V11.654H29.5385C29.5851 12.4473 29.7951 13.0447 30.1685 13.446C30.5511 13.8473 31.0645 14.048 31.7085 14.048C32.1938 14.048 32.5905 13.936 32.8985 13.712C33.2158 13.4787 33.4351 13.1753 33.5565 12.802L34.8165 12.9C34.6205 13.5627 34.2471 14.1087 33.6965 14.538C33.1551 14.958 32.4925 15.168 31.7085 15.168ZM29.5385 10.618H33.6405C33.5845 9.89933 33.3745 9.372 33.0105 9.036C32.6558 8.7 32.2031 8.532 31.6525 8.532C31.0831 8.532 30.6118 8.70933 30.2385 9.064C29.8745 9.40933 29.6411 9.92733 29.5385 10.618ZM36.5914 15V7.58H37.6274L37.6834 9.456L37.5714 9.414C37.6647 8.77933 37.8654 8.31733 38.1734 8.028C38.4907 7.72933 38.9107 7.58 39.4334 7.58H40.1614V8.7H39.4474C39.0741 8.7 38.7614 8.77 38.5094 8.91C38.2667 9.04067 38.0801 9.24133 37.9494 9.512C37.8281 9.77333 37.7674 10.1093 37.7674 10.52V15H36.5914ZM44.3035 15.168C43.6035 15.168 42.9969 15.0093 42.4835 14.692C41.9795 14.3747 41.5875 13.9267 41.3075 13.348C41.0369 12.76 40.9015 12.074 40.9015 11.29C40.9015 10.506 41.0369 9.82467 41.3075 9.246C41.5875 8.66733 41.9749 8.21933 42.4695 7.902C42.9735 7.57533 43.5662 7.412 44.2475 7.412C44.8915 7.412 45.4609 7.566 45.9555 7.874C46.4502 8.17267 46.8329 8.61133 47.1035 9.19C47.3835 9.76867 47.5235 10.4733 47.5235 11.304V11.654H42.1335C42.1802 12.4473 42.3902 13.0447 42.7635 13.446C43.1462 13.8473 43.6595 14.048 44.3035 14.048C44.7889 14.048 45.1855 13.936 45.4935 13.712C45.8109 13.4787 46.0302 13.1753 46.1515 12.802L47.4115 12.9C47.2155 13.5627 46.8422 14.1087 46.2915 14.538C45.7502 14.958 45.0875 15.168 44.3035 15.168ZM42.1335 10.618H46.2355C46.1795 9.89933 45.9695 9.372 45.6055 9.036C45.2509 8.7 44.7982 8.532 44.2475 8.532C43.6782 8.532 43.2069 8.70933 42.8335 9.064C42.4695 9.40933 42.2362 9.92733 42.1335 10.618ZM51.8185 15.168C51.1745 15.168 50.6145 15.0093 50.1385 14.692C49.6718 14.3747 49.3125 13.9267 49.0605 13.348C48.8085 12.7693 48.6825 12.0833 48.6825 11.29C48.6825 10.4967 48.8085 9.81067 49.0605 9.232C49.3125 8.65333 49.6718 8.20533 50.1385 7.888C50.6145 7.57067 51.1745 7.412 51.8185 7.412C52.3131 7.412 52.7658 7.51933 53.1765 7.734C53.5871 7.93933 53.8951 8.23333 54.1005 8.616V5.06H55.2765V15H54.2125L54.1705 13.88C53.9651 14.2813 53.6525 14.5987 53.2325 14.832C52.8125 15.056 52.3411 15.168 51.8185 15.168ZM52.0565 14.048C52.4951 14.048 52.8638 13.936 53.1625 13.712C53.4705 13.488 53.7038 13.1707 53.8625 12.76C54.0211 12.34 54.1005 11.85 54.1005 11.29C54.1005 10.7113 54.0211 10.2167 53.8625 9.806C53.7038 9.39533 53.4705 9.08267 53.1625 8.868C52.8638 8.644 52.4951 8.532 52.0565 8.532C51.4031 8.532 50.8805 8.77933 50.4885 9.274C50.1058 9.75933 49.9145 10.4313 49.9145 11.29C49.9145 12.1393 50.1058 12.8113 50.4885 13.306C50.8805 13.8007 51.4031 14.048 52.0565 14.048ZM64.5547 15.168C64.0413 15.168 63.584 15.056 63.1827 14.832C62.7813 14.5987 62.4733 14.2813 62.2587 13.88L62.2167 15H61.1527V5.06H62.3287V8.616C62.5153 8.308 62.8047 8.03267 63.1967 7.79C63.5887 7.538 64.0413 7.412 64.5547 7.412C65.208 7.412 65.7727 7.57067 66.2487 7.888C66.7247 8.20533 67.0933 8.65333 67.3547 9.232C67.616 9.81067 67.7467 10.4967 67.7467 11.29C67.7467 12.0833 67.616 12.7693 67.3547 13.348C67.0933 13.9267 66.7247 14.3747 66.2487 14.692C65.7727 15.0093 65.208 15.168 64.5547 15.168ZM64.4847 14.048C65.11 14.048 65.6047 13.8007 65.9687 13.306C66.3327 12.8113 66.5147 12.1393 66.5147 11.29C66.5147 10.4313 66.3327 9.75933 65.9687 9.274C65.6047 8.77933 65.1193 8.532 64.5127 8.532C64.0553 8.532 63.6633 8.644 63.3367 8.868C63.01 9.08267 62.758 9.39533 62.5807 9.806C62.4127 10.2167 62.3287 10.7113 62.3287 11.29C62.3287 11.85 62.4127 12.34 62.5807 12.76C62.758 13.1707 63.0053 13.488 63.3227 13.712C63.6493 13.936 64.0367 14.048 64.4847 14.048ZM69.5154 17.1V16.064H70.3694C70.6307 16.064 70.822 16.022 70.9434 15.938C71.074 15.8633 71.172 15.7373 71.2374 15.56L71.5034 14.86H71.0974L68.3814 7.58H69.6694L71.8814 13.768L73.9954 7.58H75.2834L72.2734 15.938C72.1334 16.3393 71.9234 16.6333 71.6434 16.82C71.3634 17.0067 70.976 17.1 70.4814 17.1H69.5154Z" fill="#525252"/>
<path d="M81.12 15V5.06H87.812V6.642H82.94V9.232H87.644V10.8H82.94V13.418H87.924V15H81.12ZM89.6633 15V7.524H91.2873L91.3573 9.624L91.1473 9.54C91.2219 9.01733 91.3759 8.59733 91.6093 8.28C91.8426 7.96267 92.1273 7.72933 92.4633 7.58C92.7993 7.43067 93.1679 7.356 93.5693 7.356C94.1199 7.356 94.5819 7.47733 94.9553 7.72C95.3379 7.96267 95.6273 8.29867 95.8233 8.728C96.0193 9.148 96.1173 9.638 96.1173 10.198V15H94.3253V10.772C94.3253 10.352 94.2833 9.99733 94.1993 9.708C94.1153 9.41867 93.9753 9.19933 93.7793 9.05C93.5926 8.89133 93.3406 8.812 93.0233 8.812C92.5473 8.812 92.1646 8.98 91.8753 9.316C91.5953 9.652 91.4553 10.1373 91.4553 10.772V15H89.6633ZM100.624 15.168C99.9891 15.168 99.4384 15.0093 98.9717 14.692C98.5144 14.3747 98.1597 13.922 97.9077 13.334C97.6557 12.746 97.5297 12.0553 97.5297 11.262C97.5297 10.4687 97.6557 9.778 97.9077 9.19C98.1597 8.602 98.5191 8.14933 98.9857 7.832C99.4524 7.51467 99.9984 7.356 100.624 7.356C101.146 7.356 101.604 7.46333 101.996 7.678C102.397 7.89267 102.7 8.196 102.906 8.588V5.06H104.698V15H102.99L102.948 13.894C102.742 14.2953 102.434 14.608 102.024 14.832C101.613 15.056 101.146 15.168 100.624 15.168ZM101.17 13.712C101.543 13.712 101.856 13.6187 102.108 13.432C102.369 13.2453 102.565 12.97 102.696 12.606C102.836 12.2327 102.906 11.7847 102.906 11.262C102.906 10.73 102.836 10.282 102.696 9.918C102.565 9.554 102.369 9.27867 102.108 9.092C101.856 8.90533 101.543 8.812 101.17 8.812C100.628 8.812 100.194 9.03133 99.8677 9.47C99.5504 9.89933 99.3917 10.4967 99.3917 11.262C99.3917 12.0087 99.5504 12.606 99.8677 13.054C100.194 13.4927 100.628 13.712 101.17 13.712ZM109.84 15.168C109.103 15.168 108.454 15.0093 107.894 14.692C107.344 14.3653 106.914 13.908 106.606 13.32C106.308 12.732 106.158 12.046 106.158 11.262C106.158 10.4687 106.308 9.78267 106.606 9.204C106.914 8.616 107.344 8.16333 107.894 7.846C108.454 7.51933 109.103 7.356 109.84 7.356C110.578 7.356 111.222 7.51933 111.772 7.846C112.323 8.16333 112.748 8.616 113.046 9.204C113.354 9.78267 113.508 10.4687 113.508 11.262C113.508 12.046 113.354 12.732 113.046 13.32C112.748 13.908 112.323 14.3653 111.772 14.692C111.222 15.0093 110.578 15.168 109.84 15.168ZM109.84 13.712C110.419 13.712 110.862 13.4973 111.17 13.068C111.488 12.6387 111.646 12.0367 111.646 11.262C111.646 10.4967 111.488 9.89933 111.17 9.47C110.862 9.03133 110.419 8.812 109.84 8.812C109.262 8.812 108.814 9.03133 108.496 9.47C108.179 9.89933 108.02 10.4967 108.02 11.262C108.02 12.0367 108.179 12.6387 108.496 13.068C108.814 13.4973 109.262 13.712 109.84 13.712ZM118.616 15V5.06H121.92C123.507 5.06 124.725 5.494 125.574 6.362C126.433 7.22067 126.862 8.448 126.862 10.044C126.862 11.6307 126.442 12.8533 125.602 13.712C124.762 14.5707 123.563 15 122.004 15H118.616ZM120.436 13.418H121.92C122.956 13.418 123.726 13.138 124.23 12.578C124.734 12.018 124.986 11.1733 124.986 10.044C124.986 8.896 124.734 8.042 124.23 7.482C123.726 6.922 122.956 6.642 121.92 6.642H120.436V13.418ZM128.435 15V5.06H130.563L134.847 12.536V5.06H136.667V15H134.483L130.255 7.734V15H128.435ZM137.986 15L141.57 5.06H143.796L147.38 15H145.476L144.65 12.648H140.716L139.89 15H137.986ZM141.248 11.094H144.118L142.69 6.894L141.248 11.094Z" fill="url(#paint0_linear_156_2511)"/>
<defs>
<linearGradient id="paint0_linear_156_2511" x1="76.8125" y1="-0.984375" x2="90.0414" y2="41.8521" gradientUnits="userSpaceOnUse">
<stop stop-color="#06B6D4"/>
<stop offset="1" stop-color="#7C3AED"/>
</linearGradient>
</defs>
</svg>
